<?xml version="1.0" encoding="utf-8"?>
<!-- Generator: Adobe Illustrator 27.0.0, SVG Export Plug-In . SVG Version: 6.00 Build 0)  -->
<svg version="1.1" id="Слой_1" xmlns="http://www.w3.org/2000/svg" xmlns:xlink="http://www.w3.org/1999/xlink" x="0px" y="0px"
	 viewBox="0 0 439.4 77.6" style="enable-background:new 0 0 439.4 77.6;" xml:space="preserve">
<style type="text/css">
	.st0{enable-background:new    ;}
	.st1{fill:#4D5AE5;}
	.st2{fill:#2E2F42;}
</style>
<g class="st0">
	<path class="st1" d="M22.2,10.5H33l5.3,16.3l5.3-16.3h10.9l-8.7,23.8l5.2,13.6l12.8-37.4h12.9L56.9,61.6H46.7l-8.3-20l-8.2,20H19.9
		L0,10.4h12.8l12.9,37.4l5-13.6L22.2,10.5z"/>
	<path class="st1" d="M117.2,51.2v10.4H81.3V10.4h35.3v10.4H93.1v9.9h20.2v9.6H93.1v10.9H117.2z"/>
	<path class="st1" d="M166.7,48.5c0,2.9-0.8,5.4-2.3,7.3c-1.6,1.9-3.7,3.4-6.3,4.4c-2.6,1-5.5,1.4-8.7,1.4h-24.9V10.4h28.4
		c2.4,0,4.5,0.6,6.2,1.9c1.8,1.3,3.1,2.9,4,4.9c0.9,2,1.4,4.1,1.4,6.3c0,2.4-0.6,4.7-1.9,6.9c-1.2,2.2-3.1,3.8-5.5,4.9
		c2.9,0.9,5.2,2.4,6.9,4.6C165.8,42.2,166.7,45,166.7,48.5z M136.2,20.5v10.6h11.6c0.9,0,1.7-0.2,2.4-0.6c0.7-0.4,1.4-1,1.8-1.8
		c0.5-0.8,0.7-1.8,0.7-3c0-1.2-0.2-2.1-0.6-2.9c-0.4-0.8-0.9-1.4-1.6-1.8c-0.7-0.4-1.4-0.6-2.3-0.6H136.2z M154.7,46.1
		c0-1.1-0.2-2.1-0.6-2.9c-0.4-0.8-1-1.5-1.7-2c-0.7-0.5-1.5-0.8-2.5-0.8h-13.6v11.2h13.1c1,0,1.9-0.2,2.7-0.7s1.4-1.1,1.9-1.9
		C154.4,48.1,154.7,47.1,154.7,46.1z"/>
</g>
<g class="st0">
	<path class="st2" d="M204.3,25.5c-0.1-0.2-0.6-0.6-1.5-1.1c-0.9-0.5-1.9-1-3.2-1.6c-1.3-0.6-2.7-1.1-4.2-1.5
		c-1.5-0.4-3.1-0.6-4.6-0.6c-2,0-3.6,0.3-4.7,1c-1.1,0.7-1.7,1.8-1.7,3.2c0,1.1,0.4,2,1.3,2.7c0.8,0.7,2.1,1.3,3.6,1.8
		c1.6,0.5,3.5,1.1,5.8,1.8c3.3,0.9,6.1,1.9,8.5,3.1c2.4,1.2,4.2,2.8,5.5,4.7c1.3,1.9,1.9,4.4,1.9,7.6c0,2.9-0.5,5.3-1.6,7.3
		c-1.1,2-2.5,3.6-4.3,4.8s-3.9,2.1-6.2,2.6c-2.3,0.5-4.7,0.8-7.1,0.8c-2.5,0-5.1-0.3-7.7-0.8c-2.6-0.5-5.1-1.2-7.5-2.2
		c-2.4-0.9-4.6-2.1-6.6-3.4l5.2-10.3c0.2,0.2,0.8,0.7,1.9,1.3c1.1,0.6,2.4,1.3,3.9,2c1.6,0.7,3.3,1.3,5.2,1.8
		c1.9,0.5,3.9,0.8,5.8,0.8c2.1,0,3.7-0.3,4.7-1c1-0.7,1.5-1.6,1.5-2.8c0-1.3-0.5-2.3-1.6-3c-1.1-0.7-2.5-1.4-4.4-1.9
		c-1.8-0.6-4-1.2-6.4-1.9c-3.1-1-5.7-2-7.7-3.2c-2-1.2-3.6-2.6-4.5-4.4c-1-1.7-1.5-3.9-1.5-6.4c0-3.6,0.9-6.6,2.6-9.1
		c1.7-2.5,4-4.3,6.9-5.6c2.9-1.3,6-1.9,9.4-1.9c2.4,0,4.7,0.3,6.9,0.9s4.3,1.3,6.3,2.2c1.9,0.9,3.7,1.7,5.2,2.6L204.3,25.5z"/>
	<path class="st2" d="M256.9,20.8h-15.6v40.8h-11.8V20.8h-15.6V10.4h43V20.8z"/>
	<path class="st2" d="M284.6,61.9c-4.1,0-7.6-0.7-10.4-2c-2.9-1.4-5.2-3.2-7-5.6c-1.8-2.4-3.1-5.1-4-8.1c-0.8-3-1.3-6.2-1.3-9.6
		V10.4h11.8v26.1c0,1.9,0.2,3.8,0.6,5.6c0.4,1.8,1,3.4,1.9,4.8s2,2.5,3.3,3.3c1.4,0.8,3.1,1.2,5.1,1.2c2.1,0,3.8-0.4,5.2-1.3
		c1.4-0.8,2.5-2,3.3-3.4c0.8-1.4,1.4-3,1.8-4.8c0.4-1.8,0.6-3.6,0.6-5.5V10.4h11.8v26.1c0,3.5-0.4,6.9-1.3,9.9
		c-0.9,3.1-2.2,5.8-4.1,8.1c-1.8,2.3-4.2,4.1-7,5.4C292,61.3,288.6,61.9,284.6,61.9z"/>
	<path class="st2" d="M316.4,61.6V10.4h19.1c5.6,0,10.3,1.1,14.1,3.4c3.8,2.3,6.6,5.4,8.5,9.2c1.9,3.9,2.9,8.1,2.9,12.9
		c0,5.2-1.1,9.7-3.2,13.5c-2.1,3.8-5.1,6.8-8.9,8.9c-3.8,2.1-8.3,3.2-13.4,3.2H316.4z M349,35.9c0-3-0.5-5.6-1.6-7.9
		c-1.1-2.3-2.6-4.1-4.6-5.3c-2-1.3-4.4-1.9-7.3-1.9h-7.3v30.4h7.3c2.9,0,5.3-0.7,7.3-2c2-1.3,3.5-3.1,4.6-5.5
		C348.4,41.4,349,38.8,349,35.9z"/>
	<path class="st2" d="M368,61.6V10.4h11.8v51.1H368z"/>
	<path class="st2" d="M412,61.9c-3.8,0-7.3-0.7-10.4-2.2c-3.1-1.5-5.8-3.4-8-5.9c-2.2-2.5-3.9-5.3-5.1-8.4c-1.2-3.1-1.8-6.3-1.8-9.6
		c0-3.4,0.6-6.6,1.9-9.7c1.3-3.1,3-5.8,5.3-8.2c2.3-2.4,5-4.3,8.1-5.7c3.1-1.4,6.5-2.1,10.2-2.1c3.8,0,7.2,0.7,10.3,2.2
		c3.1,1.5,5.8,3.4,8,5.9c2.2,2.5,3.9,5.3,5.1,8.4c1.2,3.1,1.8,6.3,1.8,9.5c0,3.4-0.6,6.6-1.9,9.7c-1.2,3.1-3,5.8-5.3,8.2
		c-2.3,2.4-5,4.3-8.1,5.8C419.1,61.2,415.7,61.9,412,61.9z M398.7,36c0,2,0.3,3.9,0.9,5.7c0.6,1.8,1.4,3.5,2.6,4.9
		c1.1,1.4,2.5,2.6,4.2,3.5c1.7,0.9,3.6,1.3,5.8,1.3c2.3,0,4.2-0.4,5.9-1.3c1.7-0.9,3.1-2.1,4.2-3.6c1.1-1.5,1.9-3.2,2.5-5
		s0.8-3.7,0.8-5.7c0-2-0.3-3.9-0.9-5.7c-0.6-1.8-1.4-3.5-2.6-4.9c-1.2-1.5-2.6-2.6-4.2-3.4c-1.7-0.8-3.6-1.2-5.7-1.2
		c-2.3,0-4.2,0.4-5.9,1.3s-3,2-4.2,3.5c-1.1,1.5-2,3.1-2.5,5C398.9,32.2,398.7,34.1,398.7,36z"/>
</g>
</svg>
